<mxfile host="app.diagrams.net" agent="Mozilla/5.0 (Windows NT 10.0; Win64; x64) AppleWebKit/537.36 (KHTML, like Gecko) Chrome/130.0.0.0 Safari/537.36" version="24.7.6">
  <diagram name="Page-1" id="EOcYtQ9FTw6hvNL5b5CD">
    <mxGraphModel dx="1434" dy="706" grid="1" gridSize="10" guides="1" tooltips="1" connect="1" arrows="1" fold="1" page="1" pageScale="1" pageWidth="850" pageHeight="1100" math="0" shadow="0">
      <root>
        <mxCell id="0" />
        <mxCell id="1" parent="0" />
        <mxCell id="RMBBqw6jqLW0bcZg0GJP-1" value="main.c" style="rounded=0;whiteSpace=wrap;html=1;fillColor=#d5e8d4;strokeColor=#82b366;" vertex="1" parent="1">
          <mxGeometry x="235" y="90" width="70" height="40" as="geometry" />
        </mxCell>
        <mxCell id="RMBBqw6jqLW0bcZg0GJP-18" style="edgeStyle=orthogonalEdgeStyle;rounded=0;orthogonalLoop=1;jettySize=auto;html=1;entryX=1;entryY=0.5;entryDx=0;entryDy=0;exitX=0.5;exitY=0;exitDx=0;exitDy=0;" edge="1" parent="1" source="RMBBqw6jqLW0bcZg0GJP-2" target="RMBBqw6jqLW0bcZg0GJP-1">
          <mxGeometry relative="1" as="geometry">
            <mxPoint x="310" y="110" as="targetPoint" />
            <mxPoint x="440.00800000000004" y="160" as="sourcePoint" />
            <Array as="points">
              <mxPoint x="440" y="110" />
            </Array>
          </mxGeometry>
        </mxCell>
        <mxCell id="RMBBqw6jqLW0bcZg0GJP-2" value="algo/" style="rounded=0;whiteSpace=wrap;html=1;fillColor=#d5e8d4;strokeColor=#82b366;" vertex="1" parent="1">
          <mxGeometry x="400" y="170" width="80" height="40" as="geometry" />
        </mxCell>
        <mxCell id="RMBBqw6jqLW0bcZg0GJP-10" style="edgeStyle=orthogonalEdgeStyle;rounded=0;orthogonalLoop=1;jettySize=auto;html=1;entryX=0.5;entryY=1;entryDx=0;entryDy=0;" edge="1" parent="1" source="RMBBqw6jqLW0bcZg0GJP-3" target="RMBBqw6jqLW0bcZg0GJP-5">
          <mxGeometry relative="1" as="geometry" />
        </mxCell>
        <mxCell id="RMBBqw6jqLW0bcZg0GJP-3" value="ASF/" style="rounded=0;whiteSpace=wrap;html=1;fillColor=#f8cecc;strokeColor=#b85450;" vertex="1" parent="1">
          <mxGeometry x="230" y="410" width="80" height="40" as="geometry" />
        </mxCell>
        <mxCell id="RMBBqw6jqLW0bcZg0GJP-13" style="edgeStyle=orthogonalEdgeStyle;rounded=0;orthogonalLoop=1;jettySize=auto;html=1;entryX=0;entryY=0.5;entryDx=0;entryDy=0;exitX=0.5;exitY=0;exitDx=0;exitDy=0;" edge="1" parent="1" source="RMBBqw6jqLW0bcZg0GJP-4" target="RMBBqw6jqLW0bcZg0GJP-5">
          <mxGeometry relative="1" as="geometry">
            <mxPoint x="220" y="350" as="targetPoint" />
            <mxPoint x="170" y="400" as="sourcePoint" />
            <Array as="points">
              <mxPoint x="170" y="350" />
            </Array>
          </mxGeometry>
        </mxCell>
        <mxCell id="RMBBqw6jqLW0bcZg0GJP-4" value="config/" style="rounded=0;whiteSpace=wrap;html=1;fillColor=#f8cecc;strokeColor=#b85450;" vertex="1" parent="1">
          <mxGeometry x="130" y="410" width="80" height="40" as="geometry" />
        </mxCell>
        <mxCell id="RMBBqw6jqLW0bcZg0GJP-14" style="edgeStyle=orthogonalEdgeStyle;rounded=0;orthogonalLoop=1;jettySize=auto;html=1;entryX=0.5;entryY=1;entryDx=0;entryDy=0;" edge="1" parent="1" source="RMBBqw6jqLW0bcZg0GJP-5" target="RMBBqw6jqLW0bcZg0GJP-7">
          <mxGeometry relative="1" as="geometry" />
        </mxCell>
        <mxCell id="RMBBqw6jqLW0bcZg0GJP-5" value="HAL/" style="rounded=0;whiteSpace=wrap;html=1;fillColor=#d5e8d4;strokeColor=#82b366;" vertex="1" parent="1">
          <mxGeometry x="230" y="330" width="80" height="40" as="geometry" />
        </mxCell>
        <mxCell id="RMBBqw6jqLW0bcZg0GJP-17" style="edgeStyle=orthogonalEdgeStyle;rounded=0;orthogonalLoop=1;jettySize=auto;html=1;entryX=0.5;entryY=1;entryDx=0;entryDy=0;" edge="1" parent="1" source="RMBBqw6jqLW0bcZg0GJP-6" target="RMBBqw6jqLW0bcZg0GJP-1">
          <mxGeometry relative="1" as="geometry" />
        </mxCell>
        <mxCell id="RMBBqw6jqLW0bcZg0GJP-19" style="edgeStyle=orthogonalEdgeStyle;rounded=0;orthogonalLoop=1;jettySize=auto;html=1;entryX=0;entryY=0.5;entryDx=0;entryDy=0;" edge="1" parent="1" source="RMBBqw6jqLW0bcZg0GJP-6" target="RMBBqw6jqLW0bcZg0GJP-2">
          <mxGeometry relative="1" as="geometry" />
        </mxCell>
        <mxCell id="RMBBqw6jqLW0bcZg0GJP-6" value="mouse_control_interface/ (MCI)" style="rounded=0;whiteSpace=wrap;html=1;fillColor=#d5e8d4;strokeColor=#82b366;" vertex="1" parent="1">
          <mxGeometry x="175" y="170" width="190" height="40" as="geometry" />
        </mxCell>
        <mxCell id="RMBBqw6jqLW0bcZg0GJP-16" style="edgeStyle=orthogonalEdgeStyle;rounded=0;orthogonalLoop=1;jettySize=auto;html=1;entryX=0.5;entryY=1;entryDx=0;entryDy=0;" edge="1" parent="1" source="RMBBqw6jqLW0bcZg0GJP-7" target="RMBBqw6jqLW0bcZg0GJP-6">
          <mxGeometry relative="1" as="geometry" />
        </mxCell>
        <mxCell id="RMBBqw6jqLW0bcZg0GJP-7" value="mouse_hardware_interface/ (MHI)" style="rounded=0;whiteSpace=wrap;html=1;fillColor=#d5e8d4;strokeColor=#82b366;" vertex="1" parent="1">
          <mxGeometry x="170" y="250" width="200" height="40" as="geometry" />
        </mxCell>
        <mxCell id="RMBBqw6jqLW0bcZg0GJP-15" style="edgeStyle=orthogonalEdgeStyle;rounded=0;orthogonalLoop=1;jettySize=auto;html=1;exitX=0.5;exitY=0;exitDx=0;exitDy=0;entryX=0;entryY=0.5;entryDx=0;entryDy=0;" edge="1" parent="1" source="RMBBqw6jqLW0bcZg0GJP-8" target="RMBBqw6jqLW0bcZg0GJP-6">
          <mxGeometry relative="1" as="geometry">
            <mxPoint x="170" y="190" as="targetPoint" />
            <mxPoint x="80" y="240" as="sourcePoint" />
            <Array as="points">
              <mxPoint x="80" y="190" />
            </Array>
          </mxGeometry>
        </mxCell>
        <mxCell id="RMBBqw6jqLW0bcZg0GJP-8" value="shared_functions/" style="rounded=0;whiteSpace=wrap;html=1;fillColor=#d5e8d4;strokeColor=#82b366;" vertex="1" parent="1">
          <mxGeometry x="20" y="250" width="120" height="40" as="geometry" />
        </mxCell>
        <mxCell id="RMBBqw6jqLW0bcZg0GJP-21" style="edgeStyle=orthogonalEdgeStyle;rounded=0;orthogonalLoop=1;jettySize=auto;html=1;entryX=1;entryY=0.5;entryDx=0;entryDy=0;" edge="1" parent="1" source="RMBBqw6jqLW0bcZg0GJP-20" target="RMBBqw6jqLW0bcZg0GJP-5">
          <mxGeometry relative="1" as="geometry">
            <mxPoint x="365" y="350" as="targetPoint" />
            <Array as="points">
              <mxPoint x="365" y="350" />
            </Array>
          </mxGeometry>
        </mxCell>
        <mxCell id="RMBBqw6jqLW0bcZg0GJP-20" value="asf.h" style="rounded=0;whiteSpace=wrap;html=1;fillColor=#f8cecc;strokeColor=#b85450;" vertex="1" parent="1">
          <mxGeometry x="330" y="410" width="70" height="40" as="geometry" />
        </mxCell>
        <mxCell id="RMBBqw6jqLW0bcZg0GJP-22" value="&lt;font style=&quot;font-size: 24px;&quot;&gt;Mouse 7 Firmware Dependency Diagram&lt;/font&gt;" style="text;html=1;align=center;verticalAlign=middle;whiteSpace=wrap;rounded=0;" vertex="1" parent="1">
          <mxGeometry x="15" y="20" width="465" height="30" as="geometry" />
        </mxCell>
        <mxCell id="RMBBqw6jqLW0bcZg0GJP-23" value="- &lt;b&gt;main.c&lt;/b&gt;&amp;nbsp;&lt;div&gt;&amp;nbsp; &amp;nbsp; - [entry point]&lt;div&gt;&lt;br&gt;&lt;/div&gt;&lt;div&gt;- &lt;b&gt;algo&lt;/b&gt;/&amp;nbsp;&lt;/div&gt;&lt;div&gt;&amp;nbsp; &amp;nbsp; - [maze solving algorithm source files]&lt;/div&gt;&lt;/div&gt;&lt;div&gt;&amp;nbsp; &amp;nbsp; - wallfollower_algo.c, algo.c&amp;nbsp;&lt;/div&gt;&lt;div&gt;&lt;br&gt;&lt;/div&gt;&lt;div&gt;- &lt;b&gt;mouse_control_interface&lt;/b&gt;/&lt;/div&gt;&lt;div&gt;&amp;nbsp; &amp;nbsp; - [high level mouse control definitions]&lt;/div&gt;&lt;div&gt;&amp;nbsp; &amp;nbsp; - init_mci.c, wall_detection_mci.c, movement_mci.c, etc&lt;/div&gt;&lt;div&gt;&lt;br&gt;&lt;/div&gt;&lt;div&gt;- &lt;b&gt;shared_functions&lt;/b&gt;/&lt;/div&gt;&lt;div&gt;&amp;nbsp; &amp;nbsp; - [high level functions not defined in standard library]&lt;/div&gt;&lt;div&gt;&amp;nbsp; &amp;nbsp; - constrain_sf.c&lt;/div&gt;&lt;div&gt;&lt;br&gt;&lt;/div&gt;&lt;div&gt;- &lt;b&gt;mouse_hardware_interface&lt;/b&gt;/&lt;/div&gt;&lt;div&gt;&amp;nbsp; &amp;nbsp; - [middleware to control mouse hardware components]&lt;/div&gt;&lt;div&gt;&amp;nbsp; &amp;nbsp; - leds_mhi.c, motors_mhi.c, timer_mhi.c, usart_mhi.c, etc&lt;/div&gt;&lt;div&gt;&lt;br&gt;&lt;/div&gt;&lt;div&gt;- &lt;b&gt;HAL&lt;/b&gt;&lt;/div&gt;&lt;div&gt;&amp;nbsp; &amp;nbsp; - [SOLID principles implementation]&amp;nbsp;&lt;/div&gt;&lt;div&gt;&amp;nbsp; &amp;nbsp; - [peripheral wrappers utilizing MCU SDK]&lt;/div&gt;&lt;div&gt;&amp;nbsp; &amp;nbsp; - hardware abstraction layer&lt;/div&gt;&lt;div&gt;&amp;nbsp; &amp;nbsp; - bridge between hardware SDK and middleware&amp;nbsp;&lt;/div&gt;&lt;div&gt;&lt;br&gt;&lt;/div&gt;&lt;div&gt;- &lt;b&gt;config&lt;/b&gt;/, &lt;b&gt;ASF&lt;/b&gt;/, &lt;b&gt;asf.h&lt;/b&gt;&lt;/div&gt;&lt;div&gt;&amp;nbsp; &amp;nbsp; - [Microchip studio generated SDK files]&lt;/div&gt;&lt;div&gt;&amp;nbsp; &amp;nbsp; - [&quot;Atmel Software Framework&quot; files]&lt;/div&gt;" style="rounded=0;whiteSpace=wrap;html=1;align=left;" vertex="1" parent="1">
          <mxGeometry x="500" y="40" width="330" height="410" as="geometry" />
        </mxCell>
      </root>
    </mxGraphModel>
  </diagram>
</mxfile>
